<?xml version="1.0" encoding="UTF-8"?>
<svg width="174px" height="64px" viewBox="0 0 174 64" version="1.1" xmlns="http://www.w3.org/2000/svg" xmlns:xlink="http://www.w3.org/1999/xlink">
    <!-- Generator: Sketch 51.3 (57544) - http://www.bohemiancoding.com/sketch -->
    <title>LOGO</title>
    <desc>Created with Sketch.</desc>
    <defs></defs>
    <g id="Page-1" stroke="none" stroke-width="1" fill="none" fill-rule="evenodd">
        <g id="投票_分享图" transform="translate(-50.000000, -50.000000)" fill="#FFFFFF">
            <g id="Group-23" transform="translate(50.000000, 50.000000)">
                <polygon id="Fill-1" points="0 32.5976216 0 53.4159073 18.0073957 63.8249266 18.0073957 22.1886023"></polygon>
                <polygon id="Fill-2" points="21.3120383 2.47104247e-05 1.22700851 5.38788571 18.0075191 22.1885035 18.0075191 46.0325807 36.0151617 35.6238085 36.0151617 14.8055228"></polygon>
                <path d="M58.6806979,30.5978564 C58.4758468,31.0584587 58.1954723,31.4367753 57.8477191,31.7221807 C57.5021872,32.0046208 57.1021106,32.2094703 56.6581021,32.3305514 C56.2286553,32.4486672 55.7824255,32.5087135 55.3322468,32.5087135 L54.6804255,32.5087135 C54.4849532,32.5087135 54.2759064,32.4896865 54.0589617,32.4531151 L53.825234,32.4130842 L53.825234,25.3335475 L54.0747574,25.3056247 C54.3877106,25.2700417 54.6273617,25.2487907 54.7939574,25.2391537 C54.9600596,25.2307521 55.1394894,25.2263042 55.3322468,25.2263042 C55.7806979,25.2263042 56.2266809,25.2861035 56.6581021,25.4039722 C57.1043319,25.5265359 57.5053957,25.7363274 57.8514213,26.0284046 C58.198434,26.3232 58.4780681,26.7146131 58.6826723,27.1925127 C58.8840681,27.6652232 58.9864936,28.2459181 58.9864936,28.9190301 C58.9864936,29.5760803 58.8838213,30.1409606 58.6806979,30.5978564 M61.6273447,25.7200185 C61.2082638,24.9228602 60.6588681,24.2927444 59.9949532,23.8477097 C59.3224,23.3972386 58.5568,23.0858873 57.7196255,22.9210687 C56.8627064,22.7530378 56.0080085,22.668034 55.1789787,22.668034 C54.3758638,22.668034 53.5638638,22.689532 52.7661787,22.732034 C52.0553702,22.7705822 51.3517191,22.8187676 50.6549787,22.8773313 L50.6549787,41.1667521 L53.825234,41.1667521 L53.825234,34.9851923 L54.1337447,35.0168216 C54.2991064,35.0333776 54.4773021,35.0457328 54.6675915,35.0541344 C54.8593617,35.062783 55.0642128,35.0664896 55.2814043,35.0664896 C56.0943915,35.0664896 56.9320596,34.9814857 57.7699745,34.813949 C58.5883915,34.6501189 59.340417,34.3345668 60.0045787,33.8761884 C60.6618298,33.4229992 61.2077702,32.791895 61.6275915,32.0009143 C62.0464255,31.210922 62.2589277,30.1565282 62.2589277,28.8673853 C62.2589277,27.5775012 62.0464255,26.5189066 61.6273447,25.7200185" id="Fill-3"></path>
                <path d="M72.7618145,27.7610996 L72.7618145,38.4624432 L72.5569634,38.5205127 C72.1085123,38.6477714 71.5497379,38.7125127 70.8964357,38.7125127 C70.4075081,38.7125127 69.9743591,38.6512309 69.6090826,38.5303969 C69.2208528,38.4033853 68.890623,38.1842039 68.6272783,37.878783 C68.368623,37.5783042 68.1758655,37.1730533 68.055423,36.6756324 C67.9396698,36.2011923 67.8811762,35.5915861 67.8811762,34.8646054 L67.8811762,27.7610996 L64.8133464,27.7610996 L64.8133464,34.967895 C64.8133464,36.3526672 64.9863591,37.4713081 65.3281889,38.2931768 C65.6643421,39.101949 66.1187166,39.7226749 66.6794655,40.1370687 C67.2453974,40.5566517 67.9147421,40.8348911 68.6689889,40.9643737 C69.4506315,41.0987985 70.2779336,41.1667521 71.1264613,41.1667521 C72.0739591,41.1667521 72.9972698,41.0777946 73.8702315,40.9011151 C74.6481719,40.7442039 75.2972783,40.5821035 75.804223,40.4190147 L75.804223,27.7610996 L72.7618145,27.7610996 Z" id="Fill-5"></path>
                <path d="M90.8537915,33.3140757 L90.8836553,33.0027243 C90.9744809,32.065705 91.2657149,31.323651 91.7497064,30.7970718 C92.2462851,30.2569019 92.9686936,29.9833575 93.8976809,29.9833575 C94.7304128,29.9833575 95.3923532,30.2739521 95.8642511,30.8479753 C96.3196128,31.4024772 96.5691362,32.1329174 96.6059106,33.0187861 L96.6180043,33.3140757 L90.8537915,33.3140757 Z M99.1004043,31.4274347 C98.8587787,30.6858749 98.4952298,30.0372263 98.020617,29.5002687 C97.5464979,28.9647938 96.9632894,28.536068 96.2865404,28.2264463 C95.6105319,27.9178131 94.8239532,27.761149 93.9487702,27.761149 C92.938583,27.761149 92.0451362,27.9390641 91.2938511,28.2899521 C90.5418255,28.6418286 89.9030851,29.1256587 89.3958936,29.7273575 C88.8857404,30.33301 88.4952894,31.0560371 88.2354,31.8771645 C87.9732894,32.7064463 87.8400128,33.6073884 87.8400128,34.554539 C87.8400128,35.5207166 87.9690936,36.4214116 88.2230596,37.2326548 C88.4733234,38.0332726 88.8657489,38.7315892 89.3892298,39.3093189 C89.9107362,39.8850718 90.5976043,40.3427089 91.4308298,40.6696278 C92.2714596,40.9997591 93.299417,41.1668015 94.4855787,41.1668015 C96.0343021,41.1668015 97.4490085,40.9367475 98.6939106,40.4823228 L98.1306936,38.2376278 C97.6400383,38.408871 97.1239617,38.5450255 96.5933234,38.6426317 C95.9767957,38.757288 95.3619957,38.8156046 94.7666936,38.8156046 C93.6558085,38.8156046 92.7408894,38.5630641 92.0488383,38.0656432 C91.3318596,37.5511722 90.9310426,36.7241143 90.8577404,35.6064618 L90.8377489,35.3040062 L99.381766,35.3040062 C99.4002766,35.1611799 99.4170596,34.9943846 99.4323617,34.8028788 C99.4570426,34.4920216 99.4696298,34.1764695 99.4696298,33.8569637 C99.4696298,32.9970409 99.3454851,32.179373 99.1004043,31.4274347 Z" id="Fill-7"></path>
                <path d="M122.974809,23.0937452 L122.947906,23.0907799 L119.98497,23.0907799 L117.387557,37.2328031 L113.584979,23.0991815 L110.544298,23.0991815 L106.869072,36.8727722 L104.271906,23.0860849 C104.258332,23.0836139 104.244757,23.0836139 104.23143,23.08139 L100.894332,23.08139 L105.150298,41.1669498 L108.363251,41.1669498 C108.420511,41.1617606 108.473328,41.1565714 108.532809,41.1513822 L111.93457,28.9740849 L111.93457,28.979027 L115.090511,41.1607722 C115.112477,41.1634903 115.132468,41.1642317 115.154187,41.1669498 L118.666272,41.1669498 C118.668247,41.1667027 118.670221,41.1667027 118.671949,41.1664556 L122.974809,23.0937452 Z" id="Fill-9"></path>
                <path d="M131.321231,38.6654147 C131.321231,38.6654147 130.679282,38.7815537 130.422107,38.8247969 C130.152346,38.8697699 129.878882,38.8929977 129.609367,38.8929977 C129.381069,38.8929977 129.113035,38.8796541 128.806005,38.853461 C128.478737,38.825044 128.166771,38.7481946 127.878499,38.6253838 C127.570975,38.4956541 127.305409,38.2885807 127.088711,38.0098471 C126.862388,37.7190054 126.747622,37.3125189 126.747622,36.8015073 C126.747622,36.0278239 127.037869,35.4555305 127.609724,35.1004417 C128.138141,34.7725344 128.853886,34.6064803 129.737214,34.6064803 C129.93318,34.6064803 130.155801,34.620071 130.405818,34.6467583 C130.650405,34.6734456 130.877469,34.7043336 131.087009,34.7396695 L131.321231,34.7794533 L131.321231,38.6654147 Z M132.889946,28.9843645 C131.950099,28.172627 130.614124,27.7611985 128.919537,27.7611985 C128.291656,27.7611985 127.601333,27.8205035 126.867571,27.9381251 C126.199707,28.0456154 125.524933,28.2109282 124.858056,28.4301097 L125.428184,30.5673143 C126.409001,30.2485498 127.350082,30.0866965 128.229214,30.0866965 C128.667299,30.0866965 129.072311,30.113878 129.432899,30.1672525 C129.816439,30.2238394 130.148397,30.3365189 130.419392,30.502573 C130.70026,30.6750517 130.923869,30.9157313 131.084048,31.218434 C131.241265,31.5174301 131.321231,31.9009359 131.321231,32.3590672 L131.321231,32.9778162 L131.016669,32.9516232 C130.431733,32.9009668 129.889741,32.8750208 129.404763,32.8750208 C128.746277,32.8750208 128.07792,32.9466811 127.418448,33.0885189 C126.770575,33.2276386 126.17552,33.4596695 125.651792,33.7774456 C125.138184,34.0887969 124.71392,34.5096154 124.390107,35.0285344 C124.071231,35.5395459 123.909571,36.1881946 123.909571,36.9564417 C123.909571,37.7340788 124.04112,38.3955768 124.30175,38.9216618 C124.560158,39.4445344 124.933333,39.877461 125.411154,40.2098162 C125.89712,40.548349 126.491188,40.7942178 127.175588,40.9407506 C127.877511,41.0907429 128.661622,41.166851 129.507188,41.166851 C130.555384,41.166851 131.509052,41.0818471 132.339809,40.9143104 C133.084924,40.764071 133.738473,40.6046888 134.286882,40.4403645 L134.286882,32.901461 C134.286882,31.1035305 133.816958,29.7854764 132.889946,28.9843645 Z" id="Fill-11"></path>
                <path d="M142.890626,38.7621807 C142.717614,38.7807135 142.558422,38.7896093 142.413299,38.7896093 C142.077639,38.7896093 141.789614,38.7500726 141.558848,38.6719876 C141.297971,38.5847598 141.083248,38.423895 140.920107,38.1933467 C140.766592,37.9761421 140.658737,37.6899954 140.591358,37.3181035 C140.528175,36.9733931 140.497077,36.5337946 140.497077,35.9750919 L140.497077,22.6581498 L137.454916,22.6581498 L137.454916,36.7757097 C137.454916,38.3381498 137.823648,39.4713699 138.551733,40.1437405 C139.286482,40.822783 140.284575,41.1667521 141.518618,41.1667521 C141.832558,41.1667521 142.181052,41.149949 142.55472,41.1163429 C142.844226,41.0901498 143.101401,41.0483892 143.322294,40.9920494 L143.125835,38.7312927 C143.04809,38.7436479 142.969605,38.7537792 142.890626,38.7621807" id="Fill-13"></path>
                <path d="M150.659788,38.7621807 C150.487022,38.7807135 150.327584,38.7896093 150.182707,38.7896093 C149.847048,38.7896093 149.559022,38.7500726 149.328009,38.6719876 C149.06738,38.5847598 148.852409,38.423895 148.689516,38.1933467 C148.535754,37.9761421 148.428146,37.6899954 148.36052,37.3181035 C148.297337,36.9733931 148.266486,36.5337946 148.266486,35.9750919 L148.266486,22.6581498 L145.224077,22.6581498 L145.224077,36.7757097 C145.224077,38.3381498 145.593056,39.4713699 146.321141,40.1437405 C147.05589,40.822783 148.053984,41.1667521 149.288026,41.1667521 C149.60172,41.1667521 149.95046,41.149949 150.323882,41.1163429 C150.613635,41.0901498 150.870809,41.0483892 151.091703,40.9920494 L150.894997,38.7312927 C150.817499,38.7436479 150.739014,38.7537792 150.659788,38.7621807" id="Fill-15"></path>
                <path d="M155.418799,33.3140757 L155.448663,33.0027243 C155.539489,32.065705 155.830969,31.323651 156.314714,30.7970718 C156.811293,30.2569019 157.533701,29.9833575 158.462689,29.9833575 C159.29542,29.9833575 159.957361,30.2739521 160.429259,30.8479753 C160.88462,31.4024772 161.134144,32.1329174 161.170918,33.0187861 L161.183012,33.3140757 L155.418799,33.3140757 Z M163.665412,31.4274347 C163.423786,30.6858749 163.060237,30.0372263 162.585625,29.5002687 C162.111752,28.9647938 161.528297,28.536068 160.851795,28.2264463 C160.17554,27.9178131 159.388961,27.761149 158.514025,27.761149 C157.503591,27.761149 156.610144,27.9390641 155.858859,28.2899521 C155.106833,28.6418286 154.46834,29.1256587 153.960901,29.7273575 C153.450748,30.33301 153.060297,31.0560371 152.800408,31.8771645 C152.53805,32.7064463 152.40502,33.6073884 152.40502,34.554539 C152.40502,35.5207166 152.534101,36.4214116 152.788314,37.2326548 C153.038331,38.0332726 153.430757,38.7315892 153.954237,39.3093189 C154.475744,39.8850718 155.162612,40.3427089 155.995837,40.6696278 C156.836714,40.9997591 157.864425,41.1668015 159.050586,41.1668015 C160.59931,41.1668015 162.014016,40.9367475 163.259165,40.4823228 L162.695701,38.2376278 C162.205046,38.408871 161.688969,38.5450255 161.158331,38.6426317 C160.541803,38.757288 159.927003,38.8156046 159.331701,38.8156046 C158.220816,38.8156046 157.305897,38.5630641 156.613846,38.0656432 C155.896867,37.5511722 155.49605,36.7241143 155.422748,35.6064618 L155.402757,35.3040062 L163.946774,35.3040062 C163.965284,35.1611799 163.982067,34.9943846 163.997369,34.8028788 C164.02205,34.4920216 164.034637,34.1764695 164.034637,33.8569637 C164.034637,32.9970409 163.91074,32.179373 163.665412,31.4274347 Z" id="Fill-17"></path>
                <path d="M173.762422,38.6726548 L173.346303,38.7470332 C173.084686,38.7922533 172.814924,38.8154811 172.544669,38.8154811 C172.195435,38.8154811 171.88569,38.7771799 171.624567,38.701566 C171.333333,38.6175506 171.085784,38.4581683 170.888584,38.2268788 C170.699282,38.0057205 170.554652,37.7069714 170.45889,37.3387861 C170.366584,36.985427 170.321911,36.5391568 170.321911,35.9750178 L170.321911,30.4482842 L173.458848,30.4482842 L173.461316,28.2260757 L170.321911,28.2260757 L170.321911,24.3260293 L167.304924,24.3260293 L167.304924,28.229288 L165.540737,28.229288 L165.540737,30.4482842 L167.304924,30.4482842 L167.304924,36.7756355 C167.304924,38.3360988 167.68575,39.4680834 168.437035,40.1407012 C169.198439,40.8217205 170.330797,41.1669251 171.80375,41.1669251 C172.544916,41.1669251 173.274975,41.0888402 173.976405,40.9344 L173.762422,38.6726548 Z" id="Fill-19"></path>
                <path d="M82.2186281,30.6114965 L82.2186281,27.761149 L79.1510451,27.761149 L79.1510451,41.1668015 L82.2186281,41.1668015 L82.2186281,35.0586317 C82.2186281,34.6743846 82.226526,34.334122 82.2761345,34.0207938 C82.8240494,30.5610873 86.4973004,30.8526703 86.4973004,30.8526703 L86.4973004,28.3784154 C83.7587132,28.1767784 82.2186281,30.6114965 82.2186281,30.6114965" id="Fill-21"></path>
            </g>
        </g>
    </g>
</svg>