<?xml version="1.0" encoding="UTF-8"?>
<svg width="76px" height="78px" viewBox="0 0 76 78" version="1.1" xmlns="http://www.w3.org/2000/svg" xmlns:xlink="http://www.w3.org/1999/xlink">
    <!-- Generator: Sketch 51.3 (57544) - http://www.bohemiancoding.com/sketch -->
    <title>yes</title>
    <desc>Created with Sketch.</desc>
    <defs>
        <filter x="-10.9%" y="-10.9%" width="137.5%" height="140.6%" filterUnits="objectBoundingBox" id="filter-1">
            <feOffset dx="6" dy="8" in="SourceAlpha" result="shadowOffsetOuter1"></feOffset>
            <feGaussianBlur stdDeviation="2" in="shadowOffsetOuter1" result="shadowBlurOuter1"></feGaussianBlur>
            <feColorMatrix values="0 0 0 0 0.274509804   0 0 0 0 0.11372549   0 0 0 0 0.615686275  0 0 0 0.5 0" type="matrix" in="shadowBlurOuter1" result="shadowMatrixOuter1"></feColorMatrix>
            <feMerge>
                <feMergeNode in="shadowMatrixOuter1"></feMergeNode>
                <feMergeNode in="SourceGraphic"></feMergeNode>
            </feMerge>
        </filter>
    </defs>
    <g id="Page-1" stroke="none" stroke-width="1" fill="none" fill-rule="evenodd">
        <g id="投票_BCH出块时间" transform="translate(-255.000000, -488.000000)" fill="#FFFFFF" fill-rule="nonzero" stroke="#FFFFFF">
            <g id="Group" transform="translate(50.000000, 488.000000)">
                <g id="yes" transform="translate(206.000000, 2.000000)">
                    <g id="Group-6" filter="url(#filter-1)">
                        <path d="M47.9732591,63.7682451 L24.0590084,63.7682451 C23.1462507,63.7682451 22.5073203,63.038039 22.5073203,62.2165571 C22.5073203,61.3037994 23.2375265,60.6648691 24.0590084,60.6648691 L47.9732591,60.6648691 C49.7074986,60.6648691 51.1679109,59.8433872 52.0806685,58.3829749 C52.7195989,56.8312869 59.2001783,40.401649 60.478039,35.5640334 C61.5733482,31.2740724 59.1089025,26.8928357 54.8189415,25.7975265 C54.1800111,25.6149749 53.5410808,25.5236992 52.7195989,25.5236992 L43.1356435,25.5236992 C42.5879889,25.5236992 42.13161,25.2498719 41.8577827,24.793493 C41.5839554,24.3371142 41.4926797,23.7894596 41.6752312,23.3330808 C42.5879889,20.8686351 43.1356435,15.1182618 43.1356435,7.90747632 C43.1356435,5.26047911 40.9450251,3.16113649 38.3893036,3.16113649 C35.7423064,3.16113649 33.6429638,5.35175487 33.6429638,7.90747632 L33.6429638,9.45916435 C33.6429638,20.0471532 25.0630418,28.6270752 14.4750529,28.6270752 C13.5622953,28.6270752 12.9233649,27.8968691 12.9233649,27.0753872 C12.9233649,26.1626295 13.653571,25.5236992 14.4750529,25.5236992 C23.2375265,25.5236992 30.448312,18.4041894 30.448312,9.55044011 L30.448312,7.99875209 C30.448312,3.61751532 34.0080669,0.0577604457 38.3893036,0.0577604457 C42.7705404,0.0577604457 46.3302953,3.61751532 46.3302953,7.99875209 C46.3302953,11.8323343 46.1477437,18.1303621 45.2349861,22.4203231 L52.7195989,22.4203231 C53.8149081,22.4203231 54.7276657,22.5115989 55.6404234,22.7854262 C61.5733482,24.3371142 65.1331031,30.5438663 63.581415,36.4767911 C62.2122786,41.588234 55.2753203,59.0219053 55.001493,59.7521114 C55.001493,59.8433872 54.9102173,59.934663 54.9102173,59.934663 C53.5410808,62.3078329 51.0766351,63.7682451 48.3383621,63.8595209 C48.1558106,63.7682451 48.0645348,63.7682451 47.9732591,63.7682451 Z" id="Shape"></path>
                        <path d="M14.4750529,63.7682451 L6.44278552,63.7682451 C2.88303064,63.7682451 0.0534818942,60.9386964 0.0534818942,57.3789415 L0.0534818942,31.821727 C0.0534818942,28.2619721 2.88303064,25.4324234 6.44278552,25.4324234 L14.3837772,25.4324234 C15.2965348,25.4324234 15.9354652,26.1626295 15.9354652,26.9841114 L15.9354652,62.1252813 C16.0267409,63.038039 15.2965348,63.7682451 14.4750529,63.7682451 Z M6.44278552,28.6270752 C4.70854596,28.6270752 3.2481337,30.0874875 3.2481337,31.821727 L3.2481337,57.3789415 C3.2481337,59.1131811 4.70854596,60.5735933 6.44278552,60.5735933 L12.8320891,60.5735933 L12.8320891,28.6270752 L6.44278552,28.6270752 Z" id="Shape"></path>
                    </g>
                </g>
            </g>
        </g>
    </g>
</svg>